<svg width="100" height="20" viewBox="0 0 100 20" fill="none" xmlns="http://www.w3.org/2000/svg">
<path d="M9.74609 16.4492C9.07552 16.4492 8.74023 15.8991 8.74023 14.7988C8.74023 14.7077 8.74349 14.6133 8.75 14.5156C8.77604 13.9167 8.8151 13.321 8.86719 12.7285C8.95182 11.752 9.06576 10.7559 9.20898 9.74023C6.33138 10.2806 4.67448 10.5964 4.23828 10.6875C4.17969 11.1758 4.05924 12.4518 3.87695 14.5156C3.77279 15.7656 3.39193 16.3906 2.73438 16.3906C2.03776 16.3906 1.68945 15.7982 1.68945 14.6133C1.68945 14.5286 1.69271 14.4408 1.69922 14.3496C1.72526 13.7051 1.80013 12.6797 1.92383 11.2734C1.61784 11.3711 1.33789 11.4199 1.08398 11.4199C0.413411 11.4199 0.078125 11.2344 0.078125 10.8633V10.7949C0.123698 10.2155 0.820312 9.6849 2.16797 9.20312C2.58464 5.97396 2.95573 3.72461 3.28125 2.45508C3.52865 1.49154 3.95508 1.00977 4.56055 1.00977C5.12695 1.00977 5.41016 1.41016 5.41016 2.21094C5.41016 2.32161 5.40365 2.44206 5.39062 2.57227C5.35156 3.02799 5.30273 3.43815 5.24414 3.80273C4.94466 5.61914 4.69401 7.22396 4.49219 8.61719C5.4362 8.40885 6.38346 8.21354 7.33398 8.03125C8.10872 7.88151 8.84115 7.73177 9.53125 7.58203C9.98047 4.94531 10.3809 3.09961 10.7324 2.04492C11.0124 1.2181 11.4355 0.804688 12.002 0.804688C12.6009 0.804688 12.9004 1.16927 12.9004 1.89844C12.9004 1.98307 12.8971 2.07422 12.8906 2.17188C12.8776 2.28255 12.8581 2.39974 12.832 2.52344C11.9727 6.16927 11.4062 9.5319 11.1328 12.6113L10.9766 14.4277C10.8594 15.7754 10.4492 16.4492 9.74609 16.4492ZM15.7129 9.93555C18.9421 9.59701 20.638 8.50651 20.8008 6.66406V6.57617C20.8008 6.19206 20.599 5.90885 20.1953 5.72656C19.9544 5.6224 19.6875 5.57031 19.3945 5.57031C19.0951 5.57031 18.7695 5.62565 18.418 5.73633C17.7148 5.96419 17.1126 6.43945 16.6113 7.16211C16.11 7.88477 15.8105 8.80924 15.7129 9.93555ZM17.8418 15.9512C15.6608 15.9512 14.2936 14.903 13.7402 12.8066C13.584 12.2272 13.5059 11.5762 13.5059 10.8535C13.5059 10.5345 13.5221 10.1992 13.5547 9.84766C13.6654 8.5651 13.9811 7.49414 14.502 6.63477C15.1855 5.49544 15.9928 4.70768 16.9238 4.27148C17.8613 3.83529 18.7402 3.61719 19.5605 3.61719C19.7298 3.61719 19.8991 3.62695 20.0684 3.64648C21.0449 3.75065 21.7904 4.07292 22.3047 4.61328C22.7604 5.09505 22.9883 5.66471 22.9883 6.32227C22.9883 6.41341 22.985 6.50456 22.9785 6.5957C22.7246 9.48633 20.3255 11.1855 15.7812 11.6934C15.8464 12.1296 15.9538 12.5007 16.1035 12.8066C16.5267 13.653 17.1712 14.0762 18.0371 14.0762C18.7728 14.0762 19.502 13.6921 20.2246 12.9238C21.1165 11.9798 21.7253 11.5078 22.0508 11.5078C22.3893 11.5078 22.5586 11.6934 22.5586 12.0645C22.5586 12.1035 22.5553 12.1458 22.5488 12.1914C22.5098 12.6471 22.2298 13.2038 21.709 13.8613C21.3249 14.3496 20.8984 14.776 20.4297 15.1406C19.7331 15.681 18.8704 15.9512 17.8418 15.9512ZM27.002 16.2051C25.9342 16.2051 25.1497 15.7331 24.6484 14.7891C24.349 14.2227 24.1992 13.4316 24.1992 12.416C24.1992 10.7103 24.6777 7.92383 25.6348 4.05664L26.0156 2.57227C26.276 1.55664 26.722 1.04883 27.3535 1.04883C27.9264 1.04883 28.2129 1.40365 28.2129 2.11328C28.2129 2.38021 28.125 2.86849 27.9492 3.57812C27.3047 6.21484 26.8815 8.15169 26.6797 9.38867C26.4779 10.6777 26.377 11.6738 26.377 12.377V12.6602C26.3965 13.6953 26.7122 14.2129 27.3242 14.2129C27.4544 14.2129 27.5879 14.1901 27.7246 14.1445C28.0111 14.0534 28.278 13.9199 28.5254 13.7441C29.2025 13.2559 29.7396 13.0117 30.1367 13.0117C30.6185 13.0117 30.8594 13.2005 30.8594 13.5781C30.8594 14.0924 30.5306 14.6068 29.873 15.1211C28.9486 15.8438 27.9915 16.2051 27.002 16.2051ZM34.873 16.2051C33.8053 16.2051 33.0208 15.7331 32.5195 14.7891C32.2201 14.2227 32.0703 13.4316 32.0703 12.416C32.0703 10.7103 32.5488 7.92383 33.5059 4.05664L33.8867 2.57227C34.1471 1.55664 34.5931 1.04883 35.2246 1.04883C35.7975 1.04883 36.084 1.40365 36.084 2.11328C36.084 2.38021 35.9961 2.86849 35.8203 3.57812C35.1758 6.21484 34.7526 8.15169 34.5508 9.38867C34.349 10.6777 34.248 11.6738 34.248 12.377V12.6602C34.2676 13.6953 34.5833 14.2129 35.1953 14.2129C35.3255 14.2129 35.459 14.1901 35.5957 14.1445C35.8822 14.0534 36.1491 13.9199 36.3965 13.7441C37.0736 13.2559 37.6107 13.0117 38.0078 13.0117C38.4896 13.0117 38.7305 13.2005 38.7305 13.5781C38.7305 14.0924 38.4017 14.6068 37.7441 15.1211C36.8197 15.8438 35.8626 16.2051 34.873 16.2051ZM44.3555 14.0664C45.1042 14.0664 45.7227 13.7376 46.2109 13.0801C46.7057 12.416 47.0215 11.7682 47.1582 11.1367C47.3014 10.4987 47.3893 10.0039 47.4219 9.65234C47.4414 9.44401 47.4512 9.23893 47.4512 9.03711C47.4512 8.7181 47.4284 8.40234 47.3828 8.08984C47.2656 7.25 47.0247 6.6543 46.6602 6.30273C46.3021 5.95117 45.918 5.77539 45.5078 5.77539C44.9414 5.77539 44.6289 6.10091 44.5703 6.75195C44.5573 6.91471 44.5508 7.0612 44.5508 7.19141C44.5508 7.3151 44.5573 7.41927 44.5703 7.50391C44.5964 7.6276 44.6094 7.74805 44.6094 7.86523C44.6094 7.91081 44.6061 7.95638 44.5996 8.00195C44.554 8.5293 44.248 8.79297 43.6816 8.79297C43.1087 8.70182 42.8223 8.30794 42.8223 7.61133V7.5625C42.2624 8.30469 41.9238 9.33008 41.8066 10.6387C41.7936 10.8014 41.7871 10.9642 41.7871 11.127C41.7871 11.7585 41.901 12.3314 42.1289 12.8457C42.487 13.6595 43.2292 14.0664 44.3555 14.0664ZM44.0332 16.1855C42.5358 16.1855 41.4225 15.707 40.6934 14.75C40.0944 13.9492 39.7591 13.1582 39.6875 12.377C39.6419 11.8757 39.6191 11.4395 39.6191 11.0684C39.6191 10.86 39.6257 10.6745 39.6387 10.5117C39.6973 9.86719 39.8307 9.22266 40.0391 8.57812C40.293 7.81641 40.638 7.11328 41.0742 6.46875C41.5234 5.83724 42.0703 5.52148 42.7148 5.52148C43.2161 4.3431 44.2383 3.75391 45.7812 3.75391C46.2695 3.75391 46.709 3.83529 47.0996 3.99805C47.7897 4.29753 48.3301 4.77279 48.7207 5.42383C49.1178 6.06836 49.375 6.76497 49.4922 7.51367C49.5768 8.02799 49.6191 8.51953 49.6191 8.98828C49.6191 9.21615 49.6094 9.4375 49.5898 9.65234C49.4922 10.7331 49.235 11.7812 48.8184 12.7969C47.8874 15.056 46.2923 16.1855 44.0332 16.1855ZM49.5898 19.584C49.2969 19.584 49.1504 19.4147 49.1504 19.0762V18.9688C49.1764 18.6758 49.4043 18.0378 49.834 17.0547C50.2572 16.0781 50.5469 15.235 50.7031 14.5254C50.8984 13.6465 51.3379 13.207 52.0215 13.207C52.6465 13.207 52.959 13.5326 52.959 14.1836C52.959 14.2552 52.9557 14.3268 52.9492 14.3984C52.9167 14.763 52.8516 15.1146 52.7539 15.4531C52.3047 16.9115 51.6829 18.0345 50.8887 18.8223C50.3874 19.3301 49.9544 19.584 49.5898 19.584ZM59.4531 15.9414C59.0885 15.9414 58.8281 15.8698 58.6719 15.7266C58.5352 15.5964 58.4668 15.4531 58.4668 15.2969V15.2383C58.4863 14.9844 58.6035 14.763 58.8184 14.5742C59.0397 14.3789 59.3262 14.252 59.6777 14.1934C59.9447 14.1413 60.2474 14.0957 60.5859 14.0566C60.944 12.0645 61.2337 9.79557 61.4551 7.25C61.5788 5.86328 61.6862 4.50586 61.7773 3.17773C61.25 3.23633 60.8431 3.26562 60.5566 3.26562C60.1921 3.26562 59.9316 3.19401 59.7754 3.05078C59.6387 2.92708 59.5703 2.7806 59.5703 2.61133V2.57227C59.5964 2.31185 59.7168 2.08724 59.9316 1.89844C60.153 1.70312 60.4395 1.57617 60.791 1.51758C61.2337 1.43945 61.7741 1.36458 62.4121 1.29297C63.0501 1.22135 63.6491 1.16276 64.209 1.11719C64.7689 1.0651 65.1237 1.03906 65.2734 1.03906C65.5273 1.03906 65.7292 1.11068 65.8789 1.25391C66.0091 1.3776 66.0742 1.54036 66.0742 1.74219V1.82031C66.0286 2.34766 65.5566 2.67318 64.6582 2.79688L64.043 2.88477C63.9714 4.0306 63.8835 5.19271 63.7793 6.37109C63.5384 9.11849 63.2129 11.599 62.8027 13.8125C63.5384 13.7409 63.9941 13.7051 64.1699 13.7051C64.4238 13.7051 64.6257 13.7767 64.7754 13.9199C64.9056 14.0501 64.9707 14.2096 64.9707 14.3984C64.9707 14.431 64.9674 14.4635 64.9609 14.4961C64.9154 15.0234 64.4466 15.349 63.5547 15.4727L61.0156 15.8047C60.319 15.8958 59.7982 15.9414 59.4531 15.9414ZM74.1699 13.207C74.9577 13.207 75.8822 12.3151 76.9434 10.5312C77.5293 9.55469 78.0697 8.47396 78.5645 7.28906C78.1673 6.93099 77.6432 6.75195 76.9922 6.75195C76.5104 6.75195 75.9733 7.05794 75.3809 7.66992C75.0228 8.04753 74.6582 8.57812 74.2871 9.26172C73.8118 10.1602 73.5417 10.9805 73.4766 11.7227C73.4635 11.8594 73.457 11.9896 73.457 12.1133C73.457 12.8424 73.6947 13.207 74.1699 13.207ZM80.5957 16.1758C79.9382 16.1758 79.5768 15.7201 79.5117 14.8086C79.401 13.3372 79.3457 11.8626 79.3457 10.3848C79.3457 10.0853 79.349 9.78906 79.3555 9.49609C77.8451 13.2786 75.957 15.1699 73.6914 15.1699C72.1094 15.1699 71.3184 14.2552 71.3184 12.4258C71.3184 12.2174 71.3281 11.9961 71.3477 11.7617C71.4323 10.7656 71.7415 9.72721 72.2754 8.64648C72.7246 7.74805 73.2357 7.0026 73.8086 6.41016C74.8893 5.29688 75.9928 4.74023 77.1191 4.74023C77.8158 4.74023 78.5482 4.92904 79.3164 5.30664L79.5312 4.70117C79.7917 3.97201 80.1921 3.60742 80.7324 3.60742C81.3835 3.60742 81.709 3.94596 81.709 4.62305C81.709 4.67513 81.7057 4.72721 81.6992 4.7793C81.5951 6.34831 81.543 7.96615 81.543 9.63281C81.543 11.1367 81.5853 12.6797 81.6699 14.2617C81.6764 14.3919 81.6797 14.5091 81.6797 14.6133C81.6797 14.7109 81.6764 14.7956 81.6699 14.8672C81.5918 15.7396 81.2337 16.1758 80.5957 16.1758ZM84.9121 16.2051C84.4629 16.2051 84.1536 15.9382 83.9844 15.4043C83.8997 15.1243 83.8574 14.6165 83.8574 13.8809C83.8574 12.7871 83.9486 11.1953 84.1309 9.10547C84.2676 7.50391 84.4043 6.15951 84.541 5.07227C84.6647 4.08919 85.0749 3.59766 85.7715 3.59766C86.377 3.59766 86.6797 3.96875 86.6797 4.71094C86.6797 4.79557 86.6764 4.88672 86.6699 4.98438L86.1914 9.96484C86.6992 8.92318 87.0768 8.17773 87.3242 7.72852C88.5221 5.53451 89.7005 4.4375 90.8594 4.4375C91.1914 4.4375 91.5299 4.53841 91.875 4.74023C92.5326 5.11784 92.9883 5.72656 93.2422 6.56641C93.7956 5.62891 94.4043 4.90299 95.0684 4.38867C95.7389 3.86784 96.4225 3.60742 97.1191 3.60742C97.2884 3.60742 97.4577 3.62695 97.627 3.66602C98.4212 3.82878 98.9941 4.29102 99.3457 5.05273C99.6973 5.80794 99.8893 6.63802 99.9219 7.54297C99.9349 7.86198 99.9414 8.17448 99.9414 8.48047C99.9414 9.04036 99.9186 9.56771 99.873 10.0625C99.7624 11.332 99.5605 12.543 99.2676 13.6953C98.8184 15.3555 98.2194 16.1855 97.4707 16.1855C97.2428 16.1855 97.054 16.0846 96.9043 15.8828C96.7741 15.7201 96.709 15.4987 96.709 15.2188C96.709 15.1602 96.7122 15.0983 96.7188 15.0332C96.7383 14.7988 96.7969 14.5352 96.8945 14.2422C97.2852 13.0833 97.5423 11.8138 97.666 10.4336C97.7181 9.83464 97.7441 9.19336 97.7441 8.50977C97.7441 7.82617 97.6953 7.17513 97.5977 6.55664C97.5 5.93164 97.3145 5.61914 97.041 5.61914C96.5853 5.61914 96.1328 5.92188 95.6836 6.52734C95.2409 7.1263 94.8242 7.8457 94.4336 8.68555C94.0495 9.51888 93.7598 10.3685 93.5645 11.2344C93.3431 12.2109 93.1217 13.041 92.9004 13.7246C92.7832 14.1152 92.627 14.4603 92.4316 14.7598C92.2363 15.0527 91.9466 15.1992 91.5625 15.1992C91.0026 15.1992 90.6803 15.0234 90.5957 14.6719C90.5436 14.457 90.5176 14.2422 90.5176 14.0273C90.5176 13.9492 90.5208 13.8711 90.5273 13.793C90.5599 13.3893 90.6771 12.8555 90.8789 12.1914C91.1458 11.3125 91.3053 10.5703 91.3574 9.96484C91.377 9.71094 91.3835 9.36914 91.377 8.93945C91.377 8.50977 91.3281 7.99544 91.2305 7.39648C91.1328 6.79102 90.9538 6.48828 90.6934 6.48828C90.0488 6.48828 89.1829 7.71224 88.0957 10.1602C87.653 11.1628 87.321 11.9668 87.0996 12.5723L86.4062 14.4766C85.9701 15.6289 85.472 16.2051 84.9121 16.2051Z" fill="#FC9C03"/>
</svg>
