<svg width="1280" height="507" viewBox="0 0 1280 507" fill="none" xmlns="http://www.w3.org/2000/svg">
<g clip-path="url(#clip0_1_61)">
<rect width="1280" height="507" fill="url(#paint0_linear_1_61)"/>
<mask id="mask0_1_61" style="mask-type:alpha" maskUnits="userSpaceOnUse" x="-160" y="0" width="1600" height="900">
<rect x="-160" width="1600" height="900" fill="#D9D9D9"/>
</mask>
<g mask="url(#mask0_1_61)">
<mask id="mask1_1_61" style="mask-type:alpha" maskUnits="userSpaceOnUse" x="-398" y="-223" width="1600" height="1123">
<rect x="-398" y="-223" width="1600" height="1123" fill="url(#paint1_radial_1_61)"/>
</mask>
<g mask="url(#mask1_1_61)">
<rect x="0.633663" y="-0.633663" width="150.812" height="150.812" transform="matrix(1 0 0 -1 -147.157 596.124)" fill="#00AEFF" fill-opacity="0.2" stroke="#00AEFF" stroke-width="1.26733"/>
<rect x="0.633663" y="-0.633663" width="150.812" height="150.812" transform="matrix(1 0 0 -1 3.65515 596.124)" stroke="#00AEFF" stroke-width="1.26733"/>
<rect x="0.633663" y="-0.633663" width="150.812" height="150.812" transform="matrix(1 0 0 -1 154.467 596.124)" stroke="#00AEFF" stroke-width="1.26733"/>
<rect x="0.633663" y="-0.633663" width="150.812" height="150.812" transform="matrix(1 0 0 -1 305.279 596.124)" stroke="#00AEFF" stroke-width="1.26733"/>
<rect x="0.633663" y="-0.633663" width="150.812" height="150.812" transform="matrix(1 0 0 -1 456.091 596.124)" fill="#00AEFF" fill-opacity="0.2" stroke="#00AEFF" stroke-width="1.26733"/>
<rect x="0.633663" y="-0.633663" width="150.812" height="150.812" transform="matrix(1 0 0 -1 606.903 596.124)" stroke="#00AEFF" stroke-width="1.26733"/>
<rect x="0.633663" y="-0.633663" width="150.812" height="150.812" transform="matrix(1 0 0 -1 757.715 596.124)" stroke="#00AEFF" stroke-width="1.26733"/>
<rect x="0.633663" y="-0.633663" width="150.812" height="150.812" transform="matrix(1 0 0 -1 -147.157 445.312)" stroke="#00AEFF" stroke-width="1.26733"/>
<rect x="0.633663" y="-0.633663" width="150.812" height="150.812" transform="matrix(1 0 0 -1 3.65503 445.312)" stroke="#00AEFF" stroke-width="1.26733"/>
<rect x="0.633663" y="-0.633663" width="150.812" height="150.812" transform="matrix(1 0 0 -1 154.467 445.312)" fill="#00AEFF" fill-opacity="0.2" stroke="#00AEFF" stroke-width="1.26733"/>
<rect x="0.633663" y="-0.633663" width="150.812" height="150.812" transform="matrix(1 0 0 -1 305.279 445.312)" stroke="#00AEFF" stroke-width="1.26733"/>
<rect x="0.633663" y="-0.633663" width="150.812" height="150.812" transform="matrix(1 0 0 -1 456.091 445.312)" stroke="#00AEFF" stroke-width="1.26733"/>
<rect x="0.633663" y="-0.633663" width="150.812" height="150.812" transform="matrix(1 0 0 -1 606.903 445.312)" stroke="#00AEFF" stroke-width="1.26733"/>
<rect x="0.633663" y="-0.633663" width="150.812" height="150.812" transform="matrix(1 0 0 -1 757.714 445.312)" stroke="#00AEFF" stroke-width="1.26733"/>
<rect x="0.633663" y="-0.633663" width="150.812" height="150.812" transform="matrix(1 0 0 -1 -147.157 294.5)" stroke="#00AEFF" stroke-width="1.26733"/>
<rect x="0.633663" y="-0.633663" width="150.812" height="150.812" transform="matrix(1 0 0 -1 3.65503 294.5)" fill="#00AEFF" fill-opacity="0.2" stroke="#00AEFF" stroke-width="1.26733"/>
<rect x="0.633663" y="-0.633663" width="150.812" height="150.812" transform="matrix(1 0 0 -1 154.467 294.5)" stroke="#00AEFF" stroke-width="1.26733"/>
<rect x="0.633663" y="-0.633663" width="150.812" height="150.812" transform="matrix(1 0 0 -1 305.279 294.5)" fill="#00AEFF" fill-opacity="0.2" stroke="#00AEFF" stroke-width="1.26733"/>
<rect x="0.633663" y="-0.633663" width="150.812" height="150.812" transform="matrix(1 0 0 -1 456.091 294.5)" stroke="#00AEFF" stroke-width="1.26733"/>
<rect x="0.633663" y="-0.633663" width="150.812" height="150.812" transform="matrix(1 0 0 -1 606.903 294.5)" fill="#00AEFF" fill-opacity="0.2" stroke="#00AEFF" stroke-width="1.26733"/>
<rect x="0.633663" y="-0.633663" width="150.812" height="150.812" transform="matrix(1 0 0 -1 757.714 294.5)" stroke="#00AEFF" stroke-width="1.26733"/>
<rect x="0.633663" y="-0.633663" width="150.812" height="150.812" transform="matrix(1 0 0 -1 -147.157 143.688)" stroke="#00AEFF" stroke-width="1.26733"/>
<rect x="0.633663" y="-0.633663" width="150.812" height="150.812" transform="matrix(1 0 0 -1 3.65503 143.688)" fill="#00AEFF" fill-opacity="0.2" stroke="#00AEFF" stroke-width="1.26733"/>
<rect x="0.633663" y="-0.633663" width="150.812" height="150.812" transform="matrix(1 0 0 -1 154.467 143.688)" stroke="#00AEFF" stroke-width="1.26733"/>
<rect x="0.633663" y="-0.633663" width="150.812" height="150.812" transform="matrix(1 0 0 -1 305.279 143.688)" stroke="#00AEFF" stroke-width="1.26733"/>
<rect x="0.633663" y="-0.633663" width="150.812" height="150.812" transform="matrix(1 0 0 -1 456.091 143.688)" stroke="#00AEFF" stroke-width="1.26733"/>
<rect x="0.633663" y="-0.633663" width="150.812" height="150.812" transform="matrix(1 0 0 -1 606.903 143.688)" stroke="#00AEFF" stroke-width="1.26733"/>
<rect x="0.633663" y="-0.633663" width="150.812" height="150.812" transform="matrix(1 0 0 -1 757.714 143.688)" stroke="#00AEFF" stroke-width="1.26733"/>
</g>
</g>
<rect width="1280" height="145" fill="url(#paint2_linear_1_61)"/>
</g>
<defs>
<linearGradient id="paint0_linear_1_61" x1="955.667" y1="53.8504" x2="210.743" y2="652.476" gradientUnits="userSpaceOnUse">
<stop stop-color="#DAE2FF"/>
<stop offset="0.694453" stop-color="#FAFBFF"/>
<stop offset="1" stop-color="#E9EEFF"/>
</linearGradient>
<radialGradient id="paint1_radial_1_61" cx="0" cy="0" r="1" gradientUnits="userSpaceOnUse" gradientTransform="translate(402 338.5) rotate(90) scale(492.702 701.98)">
<stop stop-opacity="0.2"/>
<stop offset="1" stop-opacity="0"/>
</radialGradient>
<linearGradient id="paint2_linear_1_61" x1="680.667" y1="19.3664" x2="680.667" y2="151.84" gradientUnits="userSpaceOnUse">
<stop offset="0.247404" stop-color="#E4EAFF"/>
<stop offset="0.724726" stop-color="#E3E9FF" stop-opacity="0.665724"/>
<stop offset="1" stop-color="#E1E8FF" stop-opacity="0"/>
</linearGradient>
<clipPath id="clip0_1_61">
<rect width="1280" height="507" fill="white"/>
</clipPath>
</defs>
</svg>
