<svg width="134" height="32" viewBox="0 0 134 32" fill="none" xmlns="http://www.w3.org/2000/svg">
<g clip-path="url(#clip0_6002_1574)">
<path d="M40.7958 23.5826C40.3162 23.3739 39.9737 22.9913 39.9737 22.4348C39.9737 21.7739 40.5217 21.2522 41.1383 21.2522C41.3438 21.2522 41.4808 21.287 41.6179 21.3566C42.4399 21.7392 43.3305 21.9826 44.4267 21.9826C46.4134 21.9826 47.3382 21.0087 47.3382 19.1652V18.6783C46.4819 19.7218 45.557 20.3479 44.0156 20.3479C41.6521 20.3479 39.4941 18.6087 39.4941 15.5479V15.5131C39.4941 12.4174 41.6864 10.7131 44.0156 10.7131C45.5913 10.7131 46.5161 11.3739 47.304 12.2435V12.1739C47.304 11.3739 47.9548 10.7131 48.7426 10.7131C49.5304 10.7131 50.1813 11.3739 50.1813 12.1739V18.8174C50.1813 20.6609 49.736 22.0174 48.8796 22.887C47.9205 23.8609 46.4819 24.2783 44.4952 24.2783C43.1593 24.3131 41.9947 24.0696 40.7958 23.5826ZM47.3382 15.5131V15.4783C47.3382 14.087 46.2421 13.0783 44.8377 13.0783C43.4333 13.0783 42.3714 14.0522 42.3714 15.4783V15.5131C42.3714 16.9392 43.4333 17.9131 44.8377 17.9131C46.2421 17.9131 47.3382 16.9044 47.3382 15.5131ZM51.7912 12.2087C51.7912 11.4087 52.442 10.7479 53.2298 10.7479C54.0177 10.7479 54.6685 11.4087 54.6685 12.2087V12.6609C55.0795 11.6522 55.7646 10.7479 56.6209 10.7479C57.5115 10.7479 58.0253 11.3392 58.0253 12.1739C58.0253 12.9392 57.5458 13.3913 56.9292 13.5305C55.4563 13.8783 54.6685 15.0261 54.6685 17.0783V19.8261C54.6685 20.6261 54.0177 21.287 53.2298 21.287C52.442 21.287 51.7912 20.6261 51.7912 19.8261V12.2087ZM57.717 18.1913V18.1565C57.717 15.8957 59.3955 14.8522 61.8275 14.8522C62.8551 14.8522 63.6087 15.0261 64.328 15.2696V15.0957C64.328 13.8783 63.5744 13.2174 62.1358 13.2174C61.3479 13.2174 60.6971 13.3218 60.149 13.4957C59.9778 13.5652 59.875 13.5652 59.738 13.5652C59.0872 13.5652 58.5391 13.0435 58.5391 12.3826C58.5391 11.8609 58.8474 11.4087 59.327 11.2348C60.2518 10.887 61.2109 10.6783 62.581 10.6783C64.1567 10.6783 65.2871 11.0957 66.0064 11.8261C66.76 12.5913 67.1025 13.7392 67.1025 15.1305V19.8261C67.1025 20.6261 66.486 21.2174 65.6981 21.2174C64.876 21.2174 64.328 20.6261 64.328 20V19.9652C63.6429 20.7652 62.6496 21.287 61.2452 21.287C59.2927 21.3565 57.717 20.2435 57.717 18.1913ZM64.328 17.5305V17.0087C63.8484 16.7652 63.1976 16.6261 62.4783 16.6261C61.2452 16.6261 60.4916 17.1131 60.4916 18.0522V18.087C60.4916 18.887 61.1424 19.3392 62.0672 19.3392C63.4031 19.3392 64.328 18.6087 64.328 17.5305ZM68.6097 12.2087C68.6097 11.4087 69.2605 10.7479 70.0483 10.7479C70.8362 10.7479 71.487 11.4087 71.487 12.2087V12.3131C72.1378 11.4435 73.0284 10.6435 74.5013 10.6435C75.8372 10.6435 76.8305 11.2348 77.3786 12.2783C78.2692 11.2348 79.3311 10.6435 80.7012 10.6435C82.8592 10.6435 84.1266 11.9652 84.1266 14.4348V19.8261C84.1266 20.6261 83.4757 21.287 82.6879 21.287C81.9001 21.287 81.2492 20.6261 81.2492 19.8261V15.4087C81.2492 14.0174 80.6327 13.3218 79.5708 13.3218C78.4747 13.3218 77.8239 14.0522 77.8239 15.4087V19.8261C77.8239 20.6261 77.1731 21.287 76.3852 21.287C75.5974 21.287 74.9466 20.6261 74.9466 19.8261V15.4087C74.9466 14.0174 74.33 13.3218 73.2682 13.3218C72.1721 13.3218 71.5212 14.0522 71.5212 15.4087V19.8261C71.5212 20.6261 70.8704 21.287 70.0826 21.287C69.2948 21.287 68.6439 20.6261 68.6439 19.8261V12.2087H68.6097ZM85.668 12.2087C85.668 11.4087 86.3188 10.7479 87.1066 10.7479C87.8944 10.7479 88.5453 11.4087 88.5453 12.2087V12.3131C89.1961 11.4435 90.0867 10.6435 91.5596 10.6435C92.8955 10.6435 93.8888 11.2348 94.4369 12.2783C95.3275 11.2348 96.3893 10.6435 97.7595 10.6435C99.9174 10.6435 101.185 11.9652 101.185 14.4348V19.8261C101.185 20.6261 100.534 21.287 99.7462 21.287C98.9584 21.287 98.3075 20.6261 98.3075 19.8261V15.4087C98.3075 14.0174 97.691 13.3218 96.6291 13.3218C95.533 13.3218 94.8822 14.0522 94.8822 15.4087V19.8261C94.8822 20.6261 94.2313 21.287 93.4435 21.287C92.6557 21.287 92.0049 20.6261 92.0049 19.8261V15.4087C92.0049 14.0174 91.3883 13.3218 90.3265 13.3218C89.2303 13.3218 88.5795 14.0522 88.5795 15.4087V19.8261C88.5795 20.6261 87.9287 21.287 87.1409 21.287C86.353 21.287 85.7022 20.6261 85.7022 19.8261V12.2087H85.668ZM102.144 18.1913V18.1565C102.144 15.8957 103.822 14.8522 106.254 14.8522C107.282 14.8522 108.036 15.0261 108.755 15.2696V15.0957C108.755 13.8783 108.001 13.2174 106.563 13.2174C105.775 13.2174 105.124 13.3218 104.576 13.4957C104.405 13.5652 104.302 13.5652 104.165 13.5652C103.514 13.5652 102.966 13.0435 102.966 12.3826C102.966 11.8609 103.274 11.4087 103.754 11.2348C104.679 10.887 105.638 10.6783 107.008 10.6783C108.584 10.6783 109.714 11.0957 110.433 11.8261C111.187 12.5913 111.529 13.7392 111.529 15.1305V19.8261C111.529 20.6261 110.913 21.2174 110.125 21.2174C109.303 21.2174 108.755 20.6261 108.755 20V19.9652C108.036 20.7652 107.076 21.287 105.672 21.287C103.72 21.3565 102.144 20.2435 102.144 18.1913ZM108.755 17.5305V17.0087C108.275 16.7652 107.625 16.6261 106.905 16.6261C105.672 16.6261 104.918 17.1131 104.918 18.0522V18.087C104.918 18.887 105.569 19.3392 106.494 19.3392C107.864 19.3392 108.755 18.6087 108.755 17.5305ZM113.037 12.2087C113.037 11.4087 113.687 10.7479 114.475 10.7479C115.263 10.7479 115.914 11.4087 115.914 12.2087V12.6609C116.325 11.6522 117.01 10.7479 117.866 10.7479C118.757 10.7479 119.271 11.3392 119.271 12.1739C119.271 12.9392 118.791 13.3913 118.175 13.5305C116.702 13.8783 115.914 15.0261 115.914 17.0783V19.8261C115.914 20.6261 115.263 21.287 114.475 21.287C113.687 21.287 113.037 20.6261 113.037 19.8261V12.2087ZM120.161 8.4522C120.161 7.6522 120.812 6.99133 121.6 6.99133C122.388 6.99133 123.039 7.6522 123.039 8.4522V19.8261C123.039 20.6261 122.388 21.287 121.6 21.287C120.812 21.287 120.161 20.6261 120.161 19.8261V8.4522ZM125.334 24.0348C124.923 23.8957 124.409 23.5479 124.409 22.8174C124.409 22.087 124.957 21.6348 125.539 21.6348C125.779 21.6348 125.916 21.6696 126.019 21.7044C126.258 21.7739 126.43 21.8087 126.635 21.8087C127.149 21.8087 127.389 21.7044 127.663 21.1826L127.766 20.9392L124.306 12.7652C124.237 12.5566 124.169 12.2783 124.169 12.1044C124.169 11.2696 124.786 10.7131 125.608 10.7131C126.327 10.7131 126.738 11.1305 126.978 11.8261L129.17 17.8435L131.294 11.8609C131.534 11.2348 131.945 10.7479 132.664 10.7479C133.417 10.7479 134.034 11.3392 134.034 12.1044C134.034 12.3479 133.965 12.6609 133.897 12.8L130.335 21.4609C129.478 23.5479 128.622 24.3479 126.909 24.3479C126.258 24.3131 125.813 24.2087 125.334 24.0348Z" fill="white"/>
<path fill-rule="evenodd" clip-rule="evenodd" d="M31.5133 16C31.5133 24.8366 24.4588 32 15.7566 32C7.05449 32 0 24.8366 0 16C0 7.16344 7.05449 0 15.7566 0C24.4588 0 31.5133 7.16344 31.5133 16ZM17.8117 19.4435C17.7089 18.7478 18.2227 18.1565 18.8735 18.1565H24.6281V24.313C24.6281 24.9739 24.0458 25.5304 23.3607 25.3913C22.8469 25.2869 22.5044 24.8 22.5044 24.2782V23.2348L22.7099 22.0869C21.0315 24.1043 18.531 25.3217 15.7564 25.3217C10.4471 25.3217 6.19969 20.9043 6.50797 15.4435C6.782 10.7478 10.5156 6.92172 15.1056 6.53911C18.6337 6.29563 21.7851 8.06955 23.532 10.8522C23.806 11.3391 23.669 11.9652 23.2237 12.2782C22.7442 12.6261 22.0933 12.4869 21.7508 12V11.9652C20.4834 10.1565 18.2569 8.66085 15.7564 8.66085C10.9267 8.66085 7.2273 13.6 9.17975 18.7478C10.0361 21.0087 12.0571 22.6435 14.4205 23.0261C17.3321 23.513 19.9696 22.4695 21.511 20.1739L20.5519 20.313H18.9078C18.394 20.313 17.9144 19.9652 17.8117 19.4435Z" fill="white"/>
</g>
<defs>
<clipPath id="clip0_6002_1574">
<rect width="134" height="32" fill="white"/>
</clipPath>
</defs>
</svg>
