<svg width="157" height="46" viewBox="0 0 157 46" fill="none" xmlns="http://www.w3.org/2000/svg">
<rect width="46" height="46" rx="23" fill="url(#paint0_linear_1054_1642)"/>
<path fill-rule="evenodd" clip-rule="evenodd" d="M36.5513 19.4528H10.4966L10.4967 34.5857C10.4967 35.3378 10.7772 36.0591 11.2765 36.5909C11.7759 37.1227 12.4532 37.4215 13.1593 37.4215H33.8886C34.5948 37.4215 35.272 37.1227 35.7714 36.5909C36.2707 36.0591 36.5513 35.3378 36.5513 34.5857V19.4528ZM28.3003 29.2039C28.9459 28.8152 28.9459 27.8792 28.3003 27.4905L21.8054 23.58C21.1389 23.1787 20.2896 23.6587 20.2896 24.4367V32.2577C20.2896 33.0357 21.1389 33.5157 21.8054 33.1144L28.3003 29.2039Z" fill="#F6F6F6"/>
<path d="M27.9975 9.38036L21.1193 10.5932L17.8354 16.2811L24.7136 15.0683L27.9975 9.38036Z" fill="#F6F6F6"/>
<path d="M28.9223 14.3262L35.9485 13.0873L35.4181 10.079C35.2285 9.00393 34.2033 8.28611 33.1283 8.47567L32.2062 8.63825L28.9223 14.3262Z" fill="#F6F6F6"/>
<path d="M11.0086 12.376L16.9106 11.3353L13.6267 17.0232L10.1127 17.6428L9.55104 14.4576C9.37871 13.4802 10.0313 12.5483 11.0086 12.376Z" fill="#F6F6F6"/>
<path d="M57.084 25.8497H59.9453C59.9648 26.9923 60.707 27.7443 61.8203 27.7443C63.0508 27.7443 63.7148 26.9825 63.7148 25.5665V15.9083H66.6641V25.5861C66.6641 28.5841 64.8672 30.2931 61.8496 30.2931C58.9688 30.2931 57.084 28.545 57.084 25.8497ZM68.9688 30.0001V19.2482H71.8203V30.0001H68.9688ZM70.3945 18.0763C69.5547 18.0763 68.8613 17.4318 68.8613 16.5822C68.8613 15.7325 69.5547 15.0978 70.3945 15.0978C71.2441 15.0978 71.9375 15.7325 71.9375 16.5822C71.9375 17.4318 71.2441 18.0763 70.3945 18.0763ZM78.7051 30.1857C75.4434 30.1857 73.4023 28.0958 73.4023 24.6193C73.4023 21.1818 75.4727 19.0626 78.7051 19.0626C81.9473 19.0626 84.0078 21.172 84.0078 24.6193C84.0078 28.1056 81.9668 30.1857 78.7051 30.1857ZM78.7051 27.9884C80.209 27.9884 81.1074 26.7579 81.1074 24.6193C81.1074 22.5001 80.1992 21.2501 78.7051 21.2501C77.2012 21.2501 76.293 22.5099 76.293 24.6193C76.293 26.7579 77.2012 27.9884 78.7051 27.9884ZM91.9766 30.2443C87.875 30.2443 85.3066 27.5001 85.3066 22.9493C85.3066 18.4083 87.8945 15.6642 91.9766 15.6642C95.3652 15.6642 97.9434 17.8126 98.168 20.9669H95.2969C95.0234 19.2384 93.6953 18.1056 91.9766 18.1056C89.75 18.1056 88.3145 19.9708 88.3145 22.9396C88.3145 25.9474 89.7305 27.8029 91.9863 27.8029C93.7344 27.8029 94.9941 26.7775 95.3066 25.1075H98.1777C97.8457 28.2521 95.4336 30.2443 91.9766 30.2443ZM99.8477 30.0001V19.2482H102.699V30.0001H99.8477ZM101.273 18.0763C100.434 18.0763 99.7402 17.4318 99.7402 16.5822C99.7402 15.7325 100.434 15.0978 101.273 15.0978C102.123 15.0978 102.816 15.7325 102.816 16.5822C102.816 17.4318 102.123 18.0763 101.273 18.0763ZM104.682 30.0001V19.2482H107.436V21.172H107.494C108.109 19.8146 109.203 19.0919 110.854 19.0919C113.236 19.0919 114.584 20.5958 114.584 23.1056V30.0001H111.732V23.7013C111.732 22.2755 111.068 21.465 109.721 21.465C108.354 21.465 107.533 22.4415 107.533 23.8673V30.0001H104.682ZM121.273 21.1915C119.975 21.1915 119.018 22.1388 118.92 23.5157H123.559C123.51 22.1095 122.592 21.1915 121.273 21.1915ZM123.598 26.7189H126.225C125.912 28.799 123.969 30.1857 121.352 30.1857C118.08 30.1857 116.078 28.0861 116.078 24.6681C116.078 21.2501 118.09 19.0626 121.244 19.0626C124.34 19.0626 126.312 21.1329 126.312 24.4044V25.2833H118.891V25.4591C118.891 27.0118 119.896 28.0568 121.4 28.0568C122.475 28.0568 123.324 27.549 123.598 26.7189ZM127.846 30.0001V19.2482H130.6V21.2013H130.658C131.117 19.9025 132.289 19.0919 133.725 19.0919C135.268 19.0919 136.361 19.8829 136.723 21.2892H136.781C137.27 19.9415 138.559 19.0919 140.121 19.0919C142.23 19.0919 143.646 20.5275 143.646 22.6954V30.0001H140.795V23.4083C140.795 22.1486 140.16 21.4552 138.998 21.4552C137.875 21.4552 137.123 22.2755 137.123 23.4962V30.0001H134.369V23.3009C134.369 22.1486 133.705 21.4552 132.602 21.4552C131.479 21.4552 130.697 22.3146 130.697 23.5353V30.0001H127.846ZM149.652 28.047C150.971 28.047 152.025 27.2267 152.025 26.0548V25.2638L149.77 25.42C148.578 25.4982 147.943 25.9669 147.943 26.7579C147.943 27.549 148.617 28.047 149.652 28.047ZM148.725 30.1271C146.654 30.1271 145.102 28.8282 145.102 26.9044C145.102 24.9513 146.596 23.8478 149.34 23.6818L152.025 23.5157V22.8029C152.025 21.7677 151.312 21.2013 150.141 21.2013C149.105 21.2013 148.383 21.7482 148.246 22.5294H145.639C145.717 20.4786 147.572 19.0626 150.258 19.0626C153.021 19.0626 154.828 20.4786 154.828 22.6271V30.0001H152.074V28.34H152.016C151.43 29.463 150.102 30.1271 148.725 30.1271Z" fill="white"/>
<defs>
<linearGradient id="paint0_linear_1054_1642" x1="23" y1="0" x2="23" y2="46" gradientUnits="userSpaceOnUse">
<stop stop-color="#FF07A8"/>
<stop offset="1" stop-color="#D9008D"/>
</linearGradient>
</defs>
</svg>
