<svg width="177" height="48" viewBox="0 0 177 48" fill="none" xmlns="http://www.w3.org/2000/svg">
<path fill-rule="evenodd" clip-rule="evenodd" d="M80.9387 29.4234C79.7029 29.7084 79.0635 29.3282 79.0635 28.5096C79.0635 27.388 80.2232 26.939 81.88 26.939C82.6087 26.939 83.2962 27.0019 83.2962 27.0019C83.2962 27.4821 82.2528 29.1204 80.9387 29.4234ZM82.1962 18.194C78.2402 18.194 75.3999 19.6487 75.3999 19.6487V23.9253C75.3999 23.9253 78.5358 22.1225 81.0799 22.1225C83.1095 22.1225 83.3591 23.2177 83.2671 24.1262C83.2671 24.1262 82.6812 23.9713 80.8948 23.9713C76.6839 23.9713 74.5591 25.8851 74.5591 28.9532C74.5591 31.8639 76.9472 33.0801 78.9599 33.0801C81.8959 33.0801 83.1872 31.1066 83.5833 30.1706C83.8588 29.5212 83.9096 29.0833 84.156 29.0833C84.4389 29.0833 84.3438 29.3975 84.3295 30.0437C84.3062 31.1759 84.3602 32.0315 84.5394 32.7528H88.4331V25.7492C88.4331 21.3764 86.8858 18.194 82.1962 18.194Z" fill="white"/>
<path fill-rule="evenodd" clip-rule="evenodd" d="M107.823 25.6445C107.823 24.3653 109.012 23.2003 111.195 23.2003C113.574 23.2003 115.487 24.3457 115.916 24.6059V19.6551C115.916 19.6551 114.405 18.1998 110.69 18.1998C106.774 18.1998 103.513 20.4912 103.513 25.4234C103.513 30.3552 106.473 33.0902 110.679 33.0902C113.966 33.0902 115.925 31.2843 115.925 31.2843V26.5826C115.305 26.929 113.578 28.1278 111.219 28.1278C108.722 28.1278 107.824 26.9787 107.824 25.645L107.823 25.6445ZM55.7824 18.524C55.7829 18.5271 56.031 19.5911 55.7041 20.9824C55.5376 21.69 55.2314 22.2918 55.601 22.2918C55.8559 22.2918 55.8564 22.0802 56.188 21.3219C56.6729 20.2135 57.6951 18.1961 60.0838 18.1961C62.3545 18.1961 63.4243 19.5758 63.7786 20.8677C64.0483 21.8492 63.8125 22.2918 64.1414 22.2918C64.3751 22.2918 64.4561 21.7825 64.7437 21.1384C65.2604 19.9845 66.3841 18.1961 68.657 18.1961C72.0863 18.1961 73.3957 20.6725 73.3957 24.3875V32.7581H68.3011V25.0411C68.3011 23.7545 68.0932 22.5065 66.9203 22.5065C65.8336 22.5065 65.327 24.4324 65.327 25.6757V32.7613H60.1388V25.0416C60.1388 23.3954 59.9066 22.507 58.7496 22.507C57.748 22.507 57.1637 24.2791 57.1637 25.6762V32.7586H51.9961V18.524H55.7819H55.7824ZM90.129 18.5435C90.1311 18.5446 91.0105 19.0517 92.7175 19.0517C94.4277 19.0517 95.2961 18.5435 95.2961 18.5435V32.7618H90.129V18.5435ZM132.788 18.5435C132.79 18.5446 133.67 19.0517 135.377 19.0517C137.087 19.0517 137.956 18.5435 137.956 18.5435V32.7618H132.788V18.5435ZM102.136 14.2146V32.7618H96.9682V14.2146H102.136ZM122.057 14.2146C122.058 14.2162 122.271 14.7493 122.271 16.3347C122.271 18.6757 121.762 20.5811 121.522 21.3071C121.394 21.6916 121.167 22.2849 121.493 22.2955C121.681 22.3013 121.794 22.0178 122.025 21.526C122.255 21.0337 123.393 18.1993 126.384 18.1993C130.504 18.1993 131.11 21.5731 131.11 25.2267V32.7613H125.942V24.9173C125.942 23.3087 125.605 22.5096 124.526 22.5096C123.224 22.5096 122.764 24.5255 122.764 25.6794V32.7613H117.597V14.2141H122.058L122.057 14.2146ZM143.488 18.524C143.488 18.5271 143.736 19.5911 143.409 20.9824C143.243 21.69 142.937 22.2918 143.306 22.2918C143.561 22.2918 143.562 22.0802 143.893 21.3219C144.378 20.2135 145.4 18.1961 147.789 18.1961C150.163 18.1961 151.105 19.5821 151.484 20.8677C151.738 21.7291 151.518 22.2918 151.847 22.2918C152.08 22.2918 152.161 21.7825 152.449 21.1384C152.964 19.9845 154.089 18.1961 156.362 18.1961C159.791 18.1961 161.101 20.6725 161.101 24.3875V32.7581H156.006V25.0411C156.006 23.7545 155.798 22.5065 154.625 22.5065C153.539 22.5065 153.032 24.4324 153.032 25.6757V32.7613H147.843V25.0416C147.843 23.3954 147.612 22.507 146.455 22.507C145.453 22.507 144.869 24.2791 144.869 25.6762V32.7586H139.701V18.524H143.487H143.488ZM92.6969 14.0708C90.9508 14.0708 89.5341 14.9952 89.5341 16.1353C89.5341 17.2754 90.9502 18.1998 92.6969 18.1998C94.4441 18.1998 95.8603 17.2754 95.8603 16.1353C95.8603 14.9952 94.4447 14.0708 92.6969 14.0708ZM135.356 14.0708C133.61 14.0708 132.193 14.9952 132.193 16.1353C132.193 17.2754 133.609 18.1998 135.356 18.1998C137.103 18.1998 138.52 17.2754 138.52 16.1353C138.52 14.9952 137.104 14.0708 135.356 14.0708Z" fill="white"/>
<path fill-rule="evenodd" clip-rule="evenodd" d="M169.903 29.6947C168.718 29.6947 167.847 28.1923 167.847 26.0987C167.847 24.0654 168.742 22.5038 169.862 22.5038C171.299 22.5038 171.912 23.8222 171.912 26.0987C171.912 28.4673 171.347 29.6947 169.903 29.6947ZM171.321 18.1913C168.665 18.1913 167.448 20.1823 166.919 21.3166C166.569 22.066 166.588 22.2865 166.332 22.2865C165.963 22.2865 166.269 21.6847 166.435 20.9771C166.763 19.5837 166.514 18.5192 166.514 18.5192H162.73V36.6803H167.895V30.9226C168.506 31.9596 169.638 33.0675 171.384 33.0675C175.12 33.0675 177 29.9067 177 25.6365C177 20.7968 174.75 18.1913 171.322 18.1913" fill="white"/>
<path fill-rule="evenodd" clip-rule="evenodd" d="M33.7322 22.4897C34.0796 22.4484 34.4123 22.4463 34.7184 22.4897C34.8956 22.0835 34.9257 21.3839 34.7666 20.6219C34.5302 19.4892 34.2097 18.8038 33.5476 18.9106C32.8856 19.0175 32.8612 19.8382 33.0982 20.9704C33.2314 21.6076 33.4683 22.1523 33.7322 22.4897Z" fill="white"/>
<path fill-rule="evenodd" clip-rule="evenodd" d="M28.05 23.386C28.5233 23.5938 28.8146 23.7318 28.9283 23.6112C29.0018 23.5361 28.9796 23.3928 28.8665 23.2083C28.6327 22.827 28.152 22.4399 27.6417 22.2226C26.5989 21.7736 25.3546 21.9227 24.3948 22.6123C24.078 22.8445 23.7777 23.166 23.8205 23.3611C23.8342 23.424 23.8818 23.4716 23.9929 23.4875C24.2541 23.5171 25.1669 23.056 26.2187 22.9915C26.9606 22.946 27.5756 23.1781 28.0494 23.386" fill="white"/>
<path fill-rule="evenodd" clip-rule="evenodd" d="M27.0975 23.9296C26.4804 24.0269 26.1404 24.2304 25.922 24.4192C25.7358 24.5821 25.6205 24.7624 25.6216 24.8888C25.6221 24.9491 25.648 24.984 25.6687 25.0015C25.6967 25.0263 25.73 25.0401 25.7702 25.0401C25.9093 25.0401 26.2218 24.9147 26.2218 24.9147C27.0801 24.6075 27.6464 24.645 28.2075 24.7085C28.5174 24.7434 28.6644 24.7624 28.7321 24.6562C28.7522 24.6255 28.7765 24.5594 28.7146 24.4589C28.5703 24.2246 27.9473 23.8286 27.098 23.9296" fill="white"/>
<path fill-rule="evenodd" clip-rule="evenodd" d="M31.8138 25.9248C32.2326 26.1305 32.6937 26.0496 32.8439 25.7445C32.9941 25.4394 32.7762 25.0248 32.3574 24.8191C31.9386 24.6134 31.4775 24.6943 31.3273 24.9994C31.1771 25.305 31.395 25.7191 31.8138 25.9248Z" fill="white"/>
<path fill-rule="evenodd" clip-rule="evenodd" d="M34.5055 23.5721C34.1655 23.5663 33.8831 23.9396 33.8752 24.4066C33.8672 24.8735 34.1369 25.2558 34.477 25.2617C34.817 25.2675 35.0994 24.8941 35.1073 24.4272C35.1152 23.9608 34.8455 23.5779 34.5055 23.5721Z" fill="white"/>
<path fill-rule="evenodd" clip-rule="evenodd" d="M11.6543 31.985C11.5696 31.8788 11.4306 31.911 11.2957 31.9427C11.2016 31.965 11.0953 31.9893 10.9784 31.9877C10.7283 31.9829 10.5162 31.8761 10.3973 31.6931C10.2423 31.4552 10.2513 31.1003 10.4221 30.6942L10.502 30.5123C10.7748 29.8999 11.2312 28.8756 10.7188 27.8994C10.3328 27.1644 9.70346 26.7069 8.94673 26.6107C8.22013 26.5187 7.47239 26.7878 6.99539 27.314C6.24289 28.1443 6.12496 29.2743 6.27039 29.6736C6.3238 29.8195 6.40735 29.8603 6.46764 29.8687C6.59561 29.8857 6.78492 29.7926 6.90338 29.4737L6.93722 29.3701C6.99011 29.2014 7.08846 28.8872 7.24975 28.6355C7.44436 28.332 7.74684 28.1231 8.10221 28.0464C8.46392 27.9687 8.83409 28.038 9.14397 28.241C9.6712 28.5858 9.87427 29.232 9.64899 29.8481C9.53265 30.167 9.34333 30.7767 9.38511 31.2775C9.46972 32.2912 10.0932 32.6984 10.6532 32.7418C11.1979 32.7624 11.5786 32.4562 11.6749 32.2331C11.7315 32.1009 11.6839 32.0205 11.6527 31.9861" fill="white"/>
<path fill-rule="evenodd" clip-rule="evenodd" d="M16.8322 13.3655C18.609 11.3126 20.7957 9.52785 22.7549 8.52574C22.8226 8.49084 22.8945 8.56435 22.858 8.63098C22.7026 8.91284 22.4027 9.51621 22.3081 9.97363C22.2933 10.045 22.371 10.0984 22.4313 10.0577C23.6502 9.22695 25.7702 8.33642 27.6301 8.2222C27.7099 8.21744 27.7485 8.3195 27.6851 8.36868C27.4021 8.5855 27.0928 8.88587 26.867 9.18941C26.8284 9.24123 26.8649 9.31526 26.9294 9.31579C28.235 9.32531 30.0758 9.78221 31.2757 10.4554C31.3566 10.5009 31.299 10.6579 31.208 10.6373C29.3926 10.2211 26.4212 9.90542 23.334 10.6585C20.5783 11.3306 18.4747 12.3686 16.9406 13.4844C16.8628 13.541 16.7698 13.4384 16.8327 13.366L16.8322 13.3655ZM25.6803 33.2553L25.6808 33.2563L25.6819 33.2584L25.6803 33.2553ZM33.0065 34.1199C33.0594 34.0977 33.0954 34.0379 33.0896 33.9782C33.0822 33.9047 33.0166 33.8512 32.9431 33.8587C32.9431 33.8587 29.152 34.4197 25.5703 33.1088C25.9606 31.8407 26.9976 32.2986 28.5655 32.425C31.3915 32.5937 33.9246 32.1807 35.7966 31.6434C37.4184 31.1781 39.549 30.2601 41.2037 28.9539C41.7616 30.1797 41.9589 31.5292 41.9589 31.5292C41.9589 31.5292 42.3909 31.452 42.7521 31.6741C43.0932 31.8841 43.3433 32.3203 43.1725 33.4488C42.8245 35.5567 41.9287 37.2679 40.4227 38.8422C39.5057 39.829 38.3931 40.6867 37.1197 41.3107C36.4433 41.6661 35.7236 41.9733 34.9626 42.2213C29.2853 44.0759 23.4736 42.0373 21.6005 37.6598C21.4509 37.3309 21.3245 36.9861 21.2251 36.6259C20.4271 33.7413 21.1045 30.2802 23.2229 28.1014V28.1004C23.3535 27.9618 23.4868 27.7984 23.4868 27.5927C23.4868 27.4209 23.3773 27.2395 23.2827 27.1104C22.5413 26.0354 19.9739 24.2035 20.4895 20.6584C20.8596 18.1116 23.087 16.3178 25.1637 16.4241L25.6898 16.4543C26.5899 16.5077 27.3746 16.623 28.1155 16.6542C29.3556 16.7081 30.4703 16.5278 31.7913 15.4273C32.2366 15.0561 32.5941 14.734 33.1985 14.632C33.262 14.6209 33.4201 14.5643 33.7358 14.5791C34.0584 14.5965 34.3651 14.6849 34.6406 14.8684C35.6993 15.5727 35.8494 17.2792 35.9044 18.5272C35.9356 19.2395 36.0218 20.9635 36.0515 21.4585C36.1186 22.5901 36.4163 22.7493 37.0181 22.9476C37.3566 23.0592 37.6707 23.1422 38.1339 23.2723C39.5353 23.6657 40.3661 24.065 40.8901 24.5779C41.2026 24.8984 41.3481 25.239 41.393 25.5637C41.558 26.7694 40.457 28.2585 37.5417 29.6117C34.355 31.0908 30.4888 31.4652 27.8178 31.1675L26.8818 31.0617C24.7454 30.7741 23.5265 33.535 24.8088 35.4271C25.6354 36.6466 27.8865 37.4398 30.1388 37.4403C35.3027 37.4408 39.2719 35.2357 40.7484 33.3314L40.8663 33.1633C40.9393 33.0538 40.879 32.9935 40.7886 33.0554C39.5824 33.8809 34.2244 37.1579 28.4931 36.1717C28.4931 36.1717 27.7966 36.0569 27.161 35.81C26.656 35.6133 25.5984 35.1268 25.4699 34.0422C30.0949 35.4726 33.0071 34.1204 33.0071 34.1204L33.0065 34.1199ZM7.60276 23.1285C5.9941 23.441 4.57635 24.3527 3.70962 25.6123C3.19138 25.1803 2.22629 24.3437 2.05548 24.0174C0.671572 21.3892 3.56578 16.2798 5.58797 13.394C10.5853 6.26294 18.4118 0.865317 22.0347 1.84468C22.6238 2.01126 24.5746 4.273 24.5746 4.273C24.5746 4.273 20.9527 6.2825 17.5942 9.08364C13.0686 12.568 9.65086 17.6325 7.60276 23.1285ZM10.3055 35.1881C10.0623 35.2299 9.81374 35.2463 9.56308 35.2399C7.14269 35.1749 4.52876 32.9962 4.26911 30.4124C3.98196 27.5562 5.44149 25.3585 8.02528 24.8371C8.33411 24.7747 8.70745 24.7387 9.10988 24.7599C10.5578 24.8392 12.691 25.9507 13.1781 29.1046C13.6096 31.8978 12.9242 34.7412 10.3055 35.1876V35.1881ZM43.09 30.1305C43.0694 30.057 42.934 29.5636 42.7484 28.9687C42.5628 28.3733 42.3708 27.955 42.3708 27.955C43.1154 26.8407 43.1286 25.8439 43.0292 25.2797C42.9234 24.5801 42.632 23.9841 42.0451 23.3675C41.4581 22.7514 40.2571 22.12 38.5697 21.6462L37.6844 21.4003C37.6802 21.3638 37.6379 19.313 37.5998 18.4326C37.5718 17.7959 37.5173 16.8022 37.209 15.8239C36.8415 14.4992 36.2016 13.3401 35.4026 12.5987C37.6078 10.3131 38.9843 7.79492 38.9806 5.63523C38.9742 1.48139 33.8727 0.224397 27.5856 2.82776L26.2536 3.39306C26.2477 3.38724 23.8453 1.03031 23.8094 0.998583C16.6413 -5.2536 -5.76993 19.6573 1.39499 25.7075L2.96082 27.0343C2.55469 28.0866 2.39498 29.2923 2.5256 30.5885C2.69271 32.2537 3.55151 33.8497 4.94388 35.0829C6.26539 36.2537 8.00307 36.9951 9.68894 36.9935C12.4774 43.4191 18.8486 47.3609 26.3186 47.583C34.3317 47.821 41.0583 44.0611 43.8769 37.3071C44.0614 36.8332 44.8436 34.6974 44.8436 32.8116C44.8436 30.9169 43.7722 30.1316 43.09 30.1316" fill="white"/>
</svg>
